<svg id="visual" viewBox="0 0 1920 1080" width="1920" height="1080" xmlns="http://www.w3.org/2000/svg" xmlns:xlink="http://www.w3.org/1999/xlink" version="1.1"><rect x="0" y="0" width="1920" height="1080" fill="#001220"></rect><g fill="none" stroke="#A7233A" stroke-width="2"><circle r="144" cx="1877" cy="929"></circle><circle r="8" cx="1088" cy="962"></circle><circle r="133" cx="1539" cy="654"></circle><circle r="123" cx="1131" cy="645"></circle><circle r="133" cx="619" cy="429"></circle><circle r="83" cx="804" cy="46"></circle><circle r="115" cx="60" cy="98"></circle><circle r="58" cx="56" cy="714"></circle><circle r="124" cx="1862" cy="116"></circle><circle r="40" cx="237" cy="946"></circle><circle r="16" cx="815" cy="741"></circle><circle r="80" cx="1421" cy="63"></circle><circle r="51" cx="571" cy="924"></circle><circle r="39" cx="1606" cy="1050"></circle><circle r="29" cx="1013" cy="289"></circle><circle r="36" cx="215" cy="377"></circle><circle r="117" cx="1562" cy="329"></circle><circle r="42" cx="1884" cy="460"></circle><circle r="97" cx="467" cy="125"></circle><circle r="97" cx="391" cy="614"></circle></g></svg>