<svg id="visual" viewBox="0 0 1920 1080" width="1920" height="1080" xmlns="http://www.w3.org/2000/svg" xmlns:xlink="http://www.w3.org/1999/xlink" version="1.1"><rect x="0" y="0" width="1920" height="1080" fill="#170033"></rect><path d="M0 658L11 664.3C22 670.7 44 683.3 66 713.3C88 743.3 110 790.7 132.2 803C154.3 815.3 176.7 792.7 198.8 777.8C221 763 243 756 265 792C287 828 309 907 331 925.3C353 943.7 375 901.3 397 875.3C419 849.3 441 839.7 463.2 849.5C485.3 859.3 507.7 888.7 529.8 903.5C552 918.3 574 918.7 596 911.8C618 905 640 891 662 859.5C684 828 706 779 728 737.7C750 696.3 772 662.7 794.2 665C816.3 667.3 838.7 705.7 860.8 710C883 714.3 905 684.7 927 697.2C949 709.7 971 764.3 993 811.7C1015 859 1037 899 1059.2 918C1081.3 937 1103.7 935 1125.8 914.5C1148 894 1170 855 1192 801C1214 747 1236 678 1258 689C1280 700 1302 791 1324 789.3C1346 787.7 1368 693.3 1390.2 705.7C1412.3 718 1434.7 837 1456.8 854.8C1479 872.7 1501 789.3 1523 770.5C1545 751.7 1567 797.3 1589 838.8C1611 880.3 1633 917.7 1655 920.7C1677 923.7 1699 892.3 1721.2 839.5C1743.3 786.7 1765.7 712.3 1787.8 703.5C1810 694.7 1832 751.3 1854 767.3C1876 783.3 1898 758.7 1909 746.3L1920 734L1920 1081L1909 1081C1898 1081 1876 1081 1854 1081C1832 1081 1810 1081 1787.8 1081C1765.7 1081 1743.3 1081 1721.2 1081C1699 1081 1677 1081 1655 1081C1633 1081 1611 1081 1589 1081C1567 1081 1545 1081 1523 1081C1501 1081 1479 1081 1456.8 1081C1434.7 1081 1412.3 1081 1390.2 1081C1368 1081 1346 1081 1324 1081C1302 1081 1280 1081 1258 1081C1236 1081 1214 1081 1192 1081C1170 1081 1148 1081 1125.8 1081C1103.7 1081 1081.3 1081 1059.2 1081C1037 1081 1015 1081 993 1081C971 1081 949 1081 927 1081C905 1081 883 1081 860.8 1081C838.7 1081 816.3 1081 794.2 1081C772 1081 750 1081 728 1081C706 1081 684 1081 662 1081C640 1081 618 1081 596 1081C574 1081 552 1081 529.8 1081C507.7 1081 485.3 1081 463.2 1081C441 1081 419 1081 397 1081C375 1081 353 1081 331 1081C309 1081 287 1081 265 1081C243 1081 221 1081 198.8 1081C176.7 1081 154.3 1081 132.2 1081C110 1081 88 1081 66 1081C44 1081 22 1081 11 1081L0 1081Z" fill="#ff00e8" stroke-linecap="round" stroke-linejoin="miter"></path></svg>