<svg id="visual" viewBox="0 0 1920 1080" width="1920" height="1080" xmlns="http://www.w3.org/2000/svg" xmlns:xlink="http://www.w3.org/1999/xlink" version="1.1"><rect x="0" y="0" width="1920" height="1080" fill="#140021"></rect><defs><linearGradient id="grad1_0" x1="43.8%" y1="0%" x2="100%" y2="100%"><stop offset="14.444444444444446%" stop-color="#fa3cf4" stop-opacity="1"></stop><stop offset="85.55555555555554%" stop-color="#fa3cf4" stop-opacity="1"></stop></linearGradient></defs><defs><linearGradient id="grad1_1" x1="43.8%" y1="0%" x2="100%" y2="100%"><stop offset="14.444444444444446%" stop-color="#fa3cf4" stop-opacity="1"></stop><stop offset="85.55555555555554%" stop-color="#140021" stop-opacity="1"></stop></linearGradient></defs><defs><linearGradient id="grad2_0" x1="0%" y1="0%" x2="56.3%" y2="100%"><stop offset="14.444444444444446%" stop-color="#fa3cf4" stop-opacity="1"></stop><stop offset="85.55555555555554%" stop-color="#fa3cf4" stop-opacity="1"></stop></linearGradient></defs><defs><linearGradient id="grad2_1" x1="0%" y1="0%" x2="56.3%" y2="100%"><stop offset="14.444444444444446%" stop-color="#140021" stop-opacity="1"></stop><stop offset="85.55555555555554%" stop-color="#fa3cf4" stop-opacity="1"></stop></linearGradient></defs><g transform="translate(1920, 0)"><path d="M0 648C-99 607.4 -198.1 566.8 -299 517.9C-399.9 469 -502.7 411.7 -561.2 324C-619.7 236.3 -633.8 118.1 -648 0L0 0Z" fill="#712b8b"></path><path d="M0 324C-49.5 303.7 -99 283.4 -149.5 258.9C-200 234.5 -251.4 205.9 -280.6 162C-309.8 118.1 -316.9 59.1 -324 0L0 0Z" fill="#fa3cf4"></path></g><g transform="translate(0, 1080)"><path d="M0 -648C122.1 -636.1 244.1 -624.2 324 -561.2C403.9 -498.2 441.5 -384 488.4 -282C535.4 -180 591.7 -90 648 0L0 0Z" fill="#712b8b"></path><path d="M0 -324C61 -318 122.1 -312.1 162 -280.6C201.9 -249.1 220.7 -192 244.2 -141C267.7 -90 295.9 -45 324 0L0 0Z" fill="#fa3cf4"></path></g></svg>