<svg id="visual" viewBox="0 0 1124 270" width="1124" height="270" xmlns="http://www.w3.org/2000/svg" xmlns:xlink="http://www.w3.org/1999/xlink" version="1.1"><g fill="none" stroke="#a223a6" stroke-width="2"><circle r="56" cx="361" cy="137"></circle><circle r="24" cx="967" cy="14"></circle><circle r="45" cx="169" cy="51"></circle><circle r="37" cx="755" cy="148"></circle><circle r="41" cx="45" cy="244"></circle><circle r="38" cx="900" cy="162"></circle><circle r="23" cx="7" cy="77"></circle><circle r="34" cx="989" cy="267"></circle><circle r="50" cx="527" cy="194"></circle><circle r="49" cx="376" cy="12"></circle><circle r="26" cx="1108" cy="29"></circle><circle r="29" cx="206" cy="269"></circle><circle r="26" cx="624" cy="90"></circle><circle r="47" cx="396" cy="264"></circle><circle r="23" cx="642" cy="213"></circle><circle r="51" cx="513" cy="27"></circle><circle r="26" cx="790" cy="5"></circle><circle r="28" cx="1028" cy="116"></circle><circle r="53" cx="817" cy="256"></circle><circle r="28" cx="1120" cy="224"></circle><circle r="44" cx="151" cy="166"></circle></g></svg>