<svg id="visual" viewBox="0 0 1124 270" width="1124" height="270" xmlns="http://www.w3.org/2000/svg" xmlns:xlink="http://www.w3.org/1999/xlink" version="1.1"><rect x="0" y="0" width="1124" height="270" fill="#001220"></rect><path d="M717 270L712.7 263.5C708.3 257 699.7 244 705.2 231.2C710.7 218.3 730.3 205.7 738.7 192.8C747 180 744 167 728.8 154.2C713.7 141.3 686.3 128.7 673.7 115.8C661 103 663 90 667.8 77.2C672.7 64.3 680.3 51.7 686.3 38.8C692.3 26 696.7 13 698.8 6.5L701 0L1124 0L1124 6.5C1124 13 1124 26 1124 38.8C1124 51.7 1124 64.3 1124 77.2C1124 90 1124 103 1124 115.8C1124 128.7 1124 141.3 1124 154.2C1124 167 1124 180 1124 192.8C1124 205.7 1124 218.3 1124 231.2C1124 244 1124 257 1124 263.5L1124 270Z" fill="#6600ff"></path><path d="M739 270L742.3 263.5C745.7 257 752.3 244 764.8 231.2C777.3 218.3 795.7 205.7 787.3 192.8C779 180 744 167 724.7 154.2C705.3 141.3 701.7 128.7 718.7 115.8C735.7 103 773.3 90 786.5 77.2C799.7 64.3 788.3 51.7 785.3 38.8C782.3 26 787.7 13 790.3 6.5L793 0L1124 0L1124 6.5C1124 13 1124 26 1124 38.8C1124 51.7 1124 64.3 1124 77.2C1124 90 1124 103 1124 115.8C1124 128.7 1124 141.3 1124 154.2C1124 167 1124 180 1124 192.8C1124 205.7 1124 218.3 1124 231.2C1124 244 1124 257 1124 263.5L1124 270Z" fill="#9b00ee"></path><path d="M755 270L760.3 263.5C765.7 257 776.3 244 789.7 231.2C803 218.3 819 205.7 811.7 192.8C804.3 180 773.7 167 763.2 154.2C752.7 141.3 762.3 128.7 768.2 115.8C774 103 776 90 767.7 77.2C759.3 64.3 740.7 51.7 752.3 38.8C764 26 806 13 827 6.5L848 0L1124 0L1124 6.5C1124 13 1124 26 1124 38.8C1124 51.7 1124 64.3 1124 77.2C1124 90 1124 103 1124 115.8C1124 128.7 1124 141.3 1124 154.2C1124 167 1124 180 1124 192.8C1124 205.7 1124 218.3 1124 231.2C1124 244 1124 257 1124 263.5L1124 270Z" fill="#bd00de"></path><path d="M760 270L769 263.5C778 257 796 244 804.7 231.2C813.3 218.3 812.7 205.7 809.7 192.8C806.7 180 801.3 167 798 154.2C794.7 141.3 793.3 128.7 798.7 115.8C804 103 816 90 825.7 77.2C835.3 64.3 842.7 51.7 850.2 38.8C857.7 26 865.3 13 869.2 6.5L873 0L1124 0L1124 6.5C1124 13 1124 26 1124 38.8C1124 51.7 1124 64.3 1124 77.2C1124 90 1124 103 1124 115.8C1124 128.7 1124 141.3 1124 154.2C1124 167 1124 180 1124 192.8C1124 205.7 1124 218.3 1124 231.2C1124 244 1124 257 1124 263.5L1124 270Z" fill="#d511d0"></path><path d="M910 270L899.5 263.5C889 257 868 244 860.5 231.2C853 218.3 859 205.7 858.5 192.8C858 180 851 167 845.2 154.2C839.3 141.3 834.7 128.7 836.8 115.8C839 103 848 90 846.5 77.2C845 64.3 833 51.7 823.2 38.8C813.3 26 805.7 13 801.8 6.5L798 0L1124 0L1124 6.5C1124 13 1124 26 1124 38.8C1124 51.7 1124 64.3 1124 77.2C1124 90 1124 103 1124 115.8C1124 128.7 1124 141.3 1124 154.2C1124 167 1124 180 1124 192.8C1124 205.7 1124 218.3 1124 231.2C1124 244 1124 257 1124 263.5L1124 270Z" fill="#e631c4"></path><path d="M864 270L870.8 263.5C877.7 257 891.3 244 889.3 231.2C887.3 218.3 869.7 205.7 873.2 192.8C876.7 180 901.3 167 914.7 154.2C928 141.3 930 128.7 928.8 115.8C927.7 103 923.3 90 912.5 77.2C901.7 64.3 884.3 51.7 886.3 38.8C888.3 26 909.7 13 920.3 6.5L931 0L1124 0L1124 6.5C1124 13 1124 26 1124 38.8C1124 51.7 1124 64.3 1124 77.2C1124 90 1124 103 1124 115.8C1124 128.7 1124 141.3 1124 154.2C1124 167 1124 180 1124 192.8C1124 205.7 1124 218.3 1124 231.2C1124 244 1124 257 1124 263.5L1124 270Z" fill="#f24abb"></path><path d="M925 270L926.7 263.5C928.3 257 931.7 244 926.3 231.2C921 218.3 907 205.7 904.2 192.8C901.3 180 909.7 167 917.2 154.2C924.7 141.3 931.3 128.7 931.2 115.8C931 103 924 90 919.7 77.2C915.3 64.3 913.7 51.7 909.5 38.8C905.3 26 898.7 13 895.3 6.5L892 0L1124 0L1124 6.5C1124 13 1124 26 1124 38.8C1124 51.7 1124 64.3 1124 77.2C1124 90 1124 103 1124 115.8C1124 128.7 1124 141.3 1124 154.2C1124 167 1124 180 1124 192.8C1124 205.7 1124 218.3 1124 231.2C1124 244 1124 257 1124 263.5L1124 270Z" fill="#fb62b4"></path><path d="M918 270L920 263.5C922 257 926 244 926.7 231.2C927.3 218.3 924.7 205.7 932.5 192.8C940.3 180 958.7 167 960 154.2C961.3 141.3 945.7 128.7 935 115.8C924.3 103 918.7 90 916.2 77.2C913.7 64.3 914.3 51.7 916.5 38.8C918.7 26 922.3 13 924.2 6.5L926 0L1124 0L1124 6.5C1124 13 1124 26 1124 38.8C1124 51.7 1124 64.3 1124 77.2C1124 90 1124 103 1124 115.8C1124 128.7 1124 141.3 1124 154.2C1124 167 1124 180 1124 192.8C1124 205.7 1124 218.3 1124 231.2C1124 244 1124 257 1124 263.5L1124 270Z" fill="#ff78b1"></path><path d="M1004 270L994.8 263.5C985.7 257 967.3 244 963 231.2C958.7 218.3 968.3 205.7 968.2 192.8C968 180 958 167 953.8 154.2C949.7 141.3 951.3 128.7 952.8 115.8C954.3 103 955.7 90 963.5 77.2C971.3 64.3 985.7 51.7 984.8 38.8C984 26 968 13 960 6.5L952 0L1124 0L1124 6.5C1124 13 1124 26 1124 38.8C1124 51.7 1124 64.3 1124 77.2C1124 90 1124 103 1124 115.8C1124 128.7 1124 141.3 1124 154.2C1124 167 1124 180 1124 192.8C1124 205.7 1124 218.3 1124 231.2C1124 244 1124 257 1124 263.5L1124 270Z" fill="#ff8eb1"></path><path d="M1043 270L1038.3 263.5C1033.7 257 1024.3 244 1017.3 231.2C1010.3 218.3 1005.7 205.7 1010.8 192.8C1016 180 1031 167 1037.7 154.2C1044.3 141.3 1042.7 128.7 1035.7 115.8C1028.7 103 1016.3 90 1014.7 77.2C1013 64.3 1022 51.7 1021.5 38.8C1021 26 1011 13 1006 6.5L1001 0L1124 0L1124 6.5C1124 13 1124 26 1124 38.8C1124 51.7 1124 64.3 1124 77.2C1124 90 1124 103 1124 115.8C1124 128.7 1124 141.3 1124 154.2C1124 167 1124 180 1124 192.8C1124 205.7 1124 218.3 1124 231.2C1124 244 1124 257 1124 263.5L1124 270Z" fill="#ffa3b5"></path><path d="M1032 270L1033.2 263.5C1034.3 257 1036.7 244 1035.2 231.2C1033.7 218.3 1028.3 205.7 1027.2 192.8C1026 180 1029 167 1036 154.2C1043 141.3 1054 128.7 1053 115.8C1052 103 1039 90 1039.5 77.2C1040 64.3 1054 51.7 1058.3 38.8C1062.7 26 1057.3 13 1054.7 6.5L1052 0L1124 0L1124 6.5C1124 13 1124 26 1124 38.8C1124 51.7 1124 64.3 1124 77.2C1124 90 1124 103 1124 115.8C1124 128.7 1124 141.3 1124 154.2C1124 167 1124 180 1124 192.8C1124 205.7 1124 218.3 1124 231.2C1124 244 1124 257 1124 263.5L1124 270Z" fill="#fdb7bd"></path><path d="M1066 270L1071.3 263.5C1076.7 257 1087.3 244 1091.2 231.2C1095 218.3 1092 205.7 1088.5 192.8C1085 180 1081 167 1083.2 154.2C1085.3 141.3 1093.7 128.7 1093 115.8C1092.3 103 1082.7 90 1077.2 77.2C1071.7 64.3 1070.3 51.7 1071.2 38.8C1072 26 1075 13 1076.5 6.5L1078 0L1124 0L1124 6.5C1124 13 1124 26 1124 38.8C1124 51.7 1124 64.3 1124 77.2C1124 90 1124 103 1124 115.8C1124 128.7 1124 141.3 1124 154.2C1124 167 1124 180 1124 192.8C1124 205.7 1124 218.3 1124 231.2C1124 244 1124 257 1124 263.5L1124 270Z" fill="#f7caca"></path></svg>